<?xml version="1.0" encoding="UTF-8" standalone="no"?><!DOCTYPE svg PUBLIC "-//W3C//DTD SVG 1.1//EN" "http://www.w3.org/Graphics/SVG/1.1/DTD/svg11.dtd"><svg width="100%" height="100%" viewBox="0 0 121 89" version="1.1" xmlns="http://www.w3.org/2000/svg" xmlns:xlink="http://www.w3.org/1999/xlink" xml:space="preserve" xmlns:serif="http://www.serif.com/" style="fill-rule:evenodd;clip-rule:evenodd;stroke-linecap:round;stroke-miterlimit:10;"><path d="M27.979,24.795l-12,-18l-12,18" style="fill:none;stroke:#b40;stroke-width:8px;"/><path d="M15.979,6.795l0,66.094" style="fill:none;stroke:#b40;stroke-width:8px;stroke-linejoin:round;stroke-miterlimit:1.5;"/><path d="M90.07,84.889l18,-12l-18,-12" style="fill:none;stroke:#b40;stroke-width:8px;"/><path d="M108.07,72.889l-92.091,-0" style="fill:none;stroke:#b40;stroke-width:8px;stroke-linejoin:round;stroke-miterlimit:1.5;"/><path d="M36.69,13.632l8.658,-2.53c0.693,0.862 1.18,1.677 1.462,2.445c0.506,1.331 0.862,3.167 1.068,5.51c0.393,4.61 0.665,9.529 0.815,14.757c2.005,-2.642 4.301,-6.137 6.887,-10.485c0.787,-1.311 1.18,-2.548 1.18,-3.71c0,-0.731 -0.454,-1.424 -1.363,-2.08c-0.909,-0.656 -1.476,-1.167 -1.701,-1.532c-0.224,-0.366 -0.337,-0.839 -0.337,-1.42c0,-0.937 0.342,-1.752 1.026,-2.445c0.684,-0.694 1.513,-1.04 2.488,-1.04c1.03,-0 1.925,0.393 2.684,1.18c0.759,0.787 1.139,1.715 1.139,2.783c-0,1.256 -0.352,2.713 -1.054,4.371c-0.703,1.659 -2.348,4.502 -4.934,8.532c-3.317,5.153 -6.568,9.613 -9.754,13.38c-2.042,2.398 -3.691,4.127 -4.947,5.186c-1.256,1.059 -2.558,1.897 -3.907,2.516c-0.806,0.356 -1.602,0.534 -2.39,0.534c-1.068,-0 -1.981,-0.375 -2.74,-1.125c-0.759,-0.749 -1.139,-1.639 -1.139,-2.67c0,-1.031 0.342,-1.902 1.026,-2.614c0.684,-0.712 1.485,-1.068 2.404,-1.068c1.143,-0 2.192,0.599 3.148,1.799c0.637,0.805 1.162,1.208 1.574,1.208c0.431,0 0.853,-0.121 1.265,-0.365c0.562,-0.3 1.349,-0.993 2.361,-2.08c0.113,-2.343 0.169,-4.114 0.169,-5.313c-0,-1.612 -0.075,-3.879 -0.225,-6.802l-0.478,-10.71c-0.168,-1.968 -0.59,-3.383 -1.265,-4.245c-0.524,-0.637 -1.208,-0.955 -2.052,-0.955c-0.318,-0 -0.674,0.028 -1.068,0.084l0,-1.096Z" style="fill:#b40;fill-rule:nonzero;"/></svg>
