<?xml version="1.0" encoding="UTF-8" standalone="no"?><!DOCTYPE svg PUBLIC "-//W3C//DTD SVG 1.1//EN" "http://www.w3.org/Graphics/SVG/1.1/DTD/svg11.dtd"><svg width="100%" height="100%" viewBox="0 0 128 89" version="1.1" xmlns="http://www.w3.org/2000/svg" xmlns:xlink="http://www.w3.org/1999/xlink" xml:space="preserve" xmlns:serif="http://www.serif.com/" style="fill-rule:evenodd;clip-rule:evenodd;stroke-linecap:round;stroke-miterlimit:10;"><path d="M28.327,24.795l-12,-18l-12,18" style="fill:none;stroke:#b40;stroke-width:8px;"/><path d="M16.327,6.795l0,66.094" style="fill:none;stroke:#b40;stroke-width:8px;stroke-linejoin:round;stroke-miterlimit:1.5;"/><path d="M73.415,84.889l18,-12l-18,-12" style="fill:none;stroke:#b40;stroke-width:8px;"/><path d="M91.415,72.889l-75.088,-0" style="fill:none;stroke:#b40;stroke-width:8px;stroke-linejoin:round;stroke-miterlimit:1.5;"/><path d="M101.24,61.165l9.81,-1.687c1.781,2.792 3.036,5.866 3.767,9.22c1.837,-2.717 3.223,-4.619 4.16,-5.706c1.256,-1.462 2.291,-2.413 3.106,-2.853c0.816,-0.441 1.682,-0.661 2.601,-0.661c1.03,0 1.822,0.281 2.375,0.843c0.553,0.563 0.829,1.322 0.829,2.277c0,0.9 -0.276,1.635 -0.829,2.207c-0.553,0.571 -1.242,0.857 -2.066,0.857c-0.6,0 -1.289,-0.108 -2.066,-0.323c-0.778,-0.216 -1.317,-0.323 -1.617,-0.323c-0.787,-0 -1.536,0.281 -2.248,0.843c-0.975,0.768 -2.174,2.408 -3.598,4.919c1.592,5.622 2.867,9.051 3.823,10.288c0.562,0.731 1.133,1.097 1.714,1.097c0.487,-0 0.909,-0.122 1.265,-0.366c0.544,-0.393 1.378,-1.377 2.502,-2.951l1.012,0.59c-1.649,2.661 -3.261,4.535 -4.835,5.622c-1.199,0.843 -2.38,1.265 -3.542,1.265c-1.199,-0 -2.197,-0.267 -2.993,-0.801c-0.797,-0.534 -1.504,-1.406 -2.123,-2.615c-0.618,-1.208 -1.349,-3.143 -2.192,-5.804c-2.193,2.792 -3.912,4.83 -5.158,6.114c-1.247,1.283 -2.282,2.122 -3.107,2.515c-0.824,0.394 -1.705,0.591 -2.642,0.591c-0.974,-0 -1.747,-0.281 -2.319,-0.844c-0.571,-0.562 -0.857,-1.293 -0.857,-2.192c-0,-0.956 0.309,-1.743 0.927,-2.361c0.619,-0.619 1.406,-0.928 2.362,-0.928c0.506,0 1.077,0.15 1.714,0.45c0.937,0.45 1.612,0.674 2.024,0.674c0.544,0 1.031,-0.112 1.462,-0.337c0.562,-0.281 1.274,-0.89 2.136,-1.827c0.525,-0.581 1.49,-1.818 2.895,-3.71c-1.799,-6.672 -3.204,-10.663 -4.216,-11.975c-0.637,-0.843 -1.443,-1.265 -2.417,-1.265c-0.506,-0 -1.125,0.075 -1.856,0.225l0.197,-1.068Z" style="fill:#b40;fill-rule:nonzero;"/></svg>
