<svg xmlns="http://www.w3.org/2000/svg" viewBox="0 0 117.65 148.65"><defs><style>.cls-1{fill:#b40;stroke:#b40;stroke-miterlimit:10;}</style></defs><title>Asset 3</title><g id="Layer_2" data-name="Layer 2"><g id="Layer_1-2" data-name="Layer 1"><path class="cls-1" d="M27.92,12.74C43.51,14.1,59.37,22.66,62.8,40c1.31,5.5-3.53,9.57-8.18,11.41-16.33-13.55-40.95-4-49.71,14.07C-4,85.81,1.22,107.82,15.45,124.77c15.09,17.48,37.83,24.4,60.82,23.27-15.07-2.22-30.33-2.2-43.45-11.43S10.07,114.43,7,98.45C4.87,86.59,9.11,73.94,18.28,66.66c3.79-2.36,10.48-1.78,13.17,3.4h0c-.39,4.45-.78,8.91,1.06,13.56,7.36,18.59,28.72,25.84,48.17,19,16.7-6.17,28.67-19.94,33.83-37.9C121.43,42,113.94,19.79,101.28.28c13.51,20,19.43,44.79,8.91,67.66C103,83.48,87.42,97.38,69.27,94.45c-6.16-1.43-13-5.62-9.12-13.81,6.55-3,12.77-7.42,15.25-15.28,5.49-16.58.69-33.61-13.61-44.73C47.17,8.13,28,6.91,10.1,11.18Z"/></g></g></svg>
